<?xml version="1.0" encoding="iso-8859-1"?>
<!-- Uploaded to: SVG Repo, www.svgrepo.com, Generator: SVG Repo Mixer Tools -->
<!DOCTYPE svg PUBLIC "-//W3C//DTD SVG 1.1//EN" "http://www.w3.org/Graphics/SVG/1.1/DTD/svg11.dtd">
<svg fill="#000000" version="1.1" id="Capa_1" xmlns="http://www.w3.org/2000/svg" xmlns:xlink="http://www.w3.org/1999/xlink" 
	 width="800px" height="800px" viewBox="0 0 48.696 48.695"
	 xml:space="preserve">
<g>
	<g id="Layer_74_3_">
		<g>
			<path d="M43.26,9.291H5.443v24.936H43.26V9.291z M40.426,31.395H8.276V12.123h32.15V31.395z"/>
			<path d="M43.252,35.385H24.886h-1.077H5.442L0,35.658v3.746h48.696v-3.746L43.252,35.385z M29.696,37.854H18.363v-0.75h11.333
				V37.854z"/>
			<path d="M23.223,25.702h-5.065V14.688h7.074v3.109h1.438v-4.548h-9.951v14.929h6.504V25.702z M21.905,27.428
				c-0.266,0-0.48-0.215-0.48-0.48c0-0.264,0.215-0.479,0.48-0.479c0.265,0,0.479,0.215,0.479,0.479
				C22.383,27.213,22.169,27.428,21.905,27.428z"/>
			<path d="M23.921,30.268h6.962V18.56h-6.962V30.268z M27.491,29.762c-0.223,0-0.4-0.18-0.4-0.4s0.18-0.401,0.4-0.401
				s0.4,0.181,0.4,0.401S27.711,29.762,27.491,29.762z M27.557,19.044c0.092,0,0.168,0.075,0.168,0.168
				c0,0.093-0.076,0.168-0.168,0.168c-0.094,0-0.168-0.075-0.168-0.168C27.389,19.119,27.463,19.044,27.557,19.044z M26.555,19.606
				h2.002v0.161h-2.002V19.606z M25.037,20.343l4.729-0.002v8.042c-1.809,0.01-3.83,0.018-4.729,0.01V20.343z"/>
		</g>
	</g>
</g>
</svg>