<?xml version="1.0" standalone="no"?>
<!DOCTYPE svg PUBLIC "-//W3C//DTD SVG 20010904//EN"
 "http://www.w3.org/TR/2001/REC-SVG-20010904/DTD/svg10.dtd">
<svg version="1.0" xmlns="http://www.w3.org/2000/svg"
 width="554.000000pt" height="554.000000pt" viewBox="0 0 554.000000 554.000000"
 preserveAspectRatio="xMidYMid meet">

<g transform="translate(0.000000,554.000000) scale(0.100000,-0.100000)"
fill="#ffffff" stroke="none">
<path d="M2613 4559 c-280 -59 -592 -228 -802 -436 -98 -96 -124 -134 -69
-100 27 17 97 41 103 35 3 -2 -14 -39 -36 -82 -32 -60 -99 -223 -99 -239 0 -2
22 18 49 44 88 84 87 84 94 -37 8 -116 38 -280 66 -354 l18 -48 -39 -5 c-95
-13 -134 -115 -108 -289 28 -193 95 -318 171 -318 32 0 37 -4 58 -47 40 -84
146 -237 211 -306 l63 -67 -12 -128 c-7 -70 -14 -134 -17 -143 -2 -8 -28 -23
-58 -32 l-54 -17 6 -65 c5 -69 -19 -185 -42 -204 -7 -6 -97 -39 -201 -74 -350
-119 -587 -213 -779 -309 -243 -122 -312 -190 -323 -318 l-5 -56 1962 0 1962
0 -4 51 c-11 131 -86 203 -343 330 -202 100 -424 188 -736 293 l-230 77 -21
68 c-15 52 -19 86 -16 138 l5 68 -56 19 -56 19 -14 140 -14 140 54 64 c65 76
113 153 170 272 31 65 46 87 61 87 54 0 112 58 146 145 22 56 52 217 52 279 0
95 -45 170 -110 183 -29 5 -31 8 -26 37 40 216 56 458 37 558 -14 71 -44 131
-76 152 -12 8 -38 54 -59 105 -91 218 -236 333 -476 377 -109 19 -296 17 -407
-7z m328 -598 c148 -57 229 -191 229 -377 0 -144 -34 -220 -185 -414 -104
-133 -148 -233 -161 -360 l-7 -70 -80 0 -80 0 7 74 c14 153 61 274 162 411
109 149 142 206 159 270 32 116 5 238 -66 299 -95 81 -253 74 -333 -15 -46
-50 -66 -99 -74 -179 l-7 -65 -83 -3 -84 -3 7 53 c27 216 116 341 278 394 66
21 247 13 318 -15z m-111 -1491 l0 -90 -90 0 -90 0 0 90 0 90 90 0 90 0 0 -90z"/>
</g>
</svg>
