<?xml version="1.0" standalone="no"?>
<!DOCTYPE svg PUBLIC "-//W3C//DTD SVG 20010904//EN"
 "http://www.w3.org/TR/2001/REC-SVG-20010904/DTD/svg10.dtd">
<svg version="1.0" xmlns="http://www.w3.org/2000/svg"
 width="364.000000pt" height="329.000000pt" viewBox="0 0 364.000000 329.000000"
 preserveAspectRatio="xMidYMid meet">

<g transform="translate(0.000000,329.000000) scale(0.100000,-0.100000)"
fill="#ffffff" stroke="none">
<path d="M1793 3171 c-135 -46 -229 -170 -241 -317 l-5 -64 81 0 c81 0 82 0
88 28 18 83 39 128 79 167 50 50 100 69 166 63 91 -9 149 -79 149 -181 0 -66
-19 -97 -129 -212 -87 -91 -120 -150 -128 -229 l-6 -55 44 11 c56 14 69 24 69
55 0 45 28 91 114 184 115 125 149 193 150 297 0 67 -3 84 -29 131 -52 95
-144 141 -279 141 -42 -1 -93 -8 -123 -19z"/>
<path d="M1878 2304 l-48 -15 0 -49 0 -49 52 18 c54 18 65 33 67 89 1 25 -6
26 -71 6z"/>
<path d="M1785 2116 c-99 -54 -119 -86 -131 -211 -5 -43 -12 -65 -27 -76 -16
-13 -20 -29 -21 -90 -2 -85 1 -99 20 -99 10 0 14 -13 14 -45 0 -25 0 -48 1
-52 0 -5 -46 -16 -103 -25 -57 -9 -149 -27 -205 -39 l-102 -22 -20 -71 c-12
-39 -25 -85 -31 -102 -5 -17 -10 -45 -10 -62 0 -17 -21 -74 -48 -127 l-48 -95
-58 71 c-32 39 -71 78 -88 87 -17 10 -42 26 -57 38 -38 30 -56 35 -151 44 -54
4 -104 16 -138 31 -50 22 -53 22 -70 5 -16 -16 -15 -19 15 -46 18 -16 51 -34
73 -40 81 -22 16 -53 -88 -43 -41 5 -65 14 -97 38 -60 46 -81 51 -96 23 -11
-21 -7 -27 56 -85 37 -35 79 -66 94 -70 14 -3 31 -9 36 -13 6 -4 35 -11 65
-14 130 -16 127 -14 122 -45 -7 -51 15 -108 53 -131 19 -12 35 -26 35 -31 0
-5 17 -28 38 -52 21 -23 51 -62 67 -86 34 -50 111 -115 162 -136 47 -20 133
-1 196 42 54 38 52 43 36 -92 -6 -50 -29 -145 -51 -214 -31 -95 -41 -143 -43
-203 l-2 -78 647 0 647 0 1 43 c1 23 -12 96 -28 162 -28 110 -68 430 -56 443
3 2 8 -18 12 -46 3 -27 9 -54 13 -59 12 -18 102 -73 120 -73 10 0 33 -5 51
-11 46 -16 80 4 161 94 87 97 128 164 145 239 8 35 16 73 19 86 4 17 11 22 24
17 10 -3 24 1 31 10 9 11 32 15 87 15 82 0 102 9 176 79 47 45 49 66 5 57 -17
-3 -39 -13 -48 -21 -32 -29 -190 1 -190 35 0 5 11 12 25 15 14 3 36 7 48 10
31 6 77 43 77 61 0 26 -29 27 -105 5 -41 -13 -79 -20 -84 -16 -20 12 -146 -16
-183 -40 -21 -14 -42 -25 -47 -25 -7 0 -63 -61 -111 -122 -3 -4 -15 8 -28 26
-15 22 -25 59 -33 116 -5 46 -17 99 -26 119 -9 20 -19 62 -23 94 -4 31 -13 64
-20 72 -6 7 -44 21 -83 30 -40 9 -105 27 -146 41 -93 31 -188 54 -195 46 -8
-7 -6 30 2 48 4 8 13 15 21 15 8 0 19 18 26 40 6 22 18 50 25 62 12 18 12 28
2 56 -10 28 -10 46 3 100 29 127 -1 197 -118 269 -60 37 -65 38 -142 37 -44
-1 -89 -7 -100 -13z m-488 -1448 c-3 -8 -6 -5 -6 6 -1 11 2 17 5 13 3 -3 4
-12 1 -19z"/>
</g>
</svg>
