<?xml version="1.0" standalone="no"?>
<!DOCTYPE svg PUBLIC "-//W3C//DTD SVG 20010904//EN"
 "http://www.w3.org/TR/2001/REC-SVG-20010904/DTD/svg10.dtd">
<svg version="1.0" xmlns="http://www.w3.org/2000/svg"
 width="338.000000pt" height="338.000000pt" viewBox="0 0 338.000000 338.000000"
 preserveAspectRatio="xMidYMid meet">

<g transform="translate(0.000000,338.000000) scale(0.100000,-0.100000)"
fill="#000000" stroke="none">
<path d="M0 1690 l0 -1690 1690 0 1690 0 0 1690 0 1690 -1690 0 -1690 0 0
-1690z m1550 615 c134 -195 244 -355 245 -355 1 0 139 160 306 355 l304 355
84 0 84 0 -20 -22 c-11 -13 -169 -197 -352 -410 l-332 -387 377 -548 c207
-301 381 -554 387 -560 7 -10 -49 -13 -274 -13 l-284 1 -250 365 c-137 201
-255 370 -262 375 -8 7 -103 -97 -334 -365 l-323 -376 -78 0 c-43 0 -78 3 -78
6 0 3 161 193 358 422 196 228 360 421 365 428 4 8 -127 207 -358 543 -201
291 -365 532 -365 535 0 4 125 6 278 6 l277 0 245 -355z"/>
<path d="M1047 2447 c32 -46 292 -424 578 -840 l520 -756 123 -1 c100 0 122 2
115 13 -4 8 -264 386 -577 840 l-569 827 -124 0 -123 0 57 -83z"/>
</g>
</svg>
